<?xml version="1.0" encoding="UTF-8"?>
<svg id="Capa_1" data-name="Capa 1" xmlns="http://www.w3.org/2000/svg" viewBox="0 0 260.39 97.55">
  <defs>
    <style>
      .cls-1 {
        fill-rule: evenodd;
      }

      .cls-1, .cls-2 {
        fill: #fff;
        stroke-width: 0px;
      }
    </style>
  </defs>
  <path class="cls-1" d="M127.75,57.91c.4-.3,1.6-1.8,3.3-3.1,3.5-2.8,8-5.5,9.1-10.1.9-4.2-1.3-7.4-4.1-8.5-5-2.1-7.2,2.5-8.3,3.5-.4-.4-.9-1.2-1.3-1.7s-1.2-1.1-1.8-1.5c-6.4-3.9-15.5,6.9-3.8,15.5l5.3,4.3c.5.5,1.1,1.2,1.6,1.6h0Z"/>
  <path class="cls-2" d="M81.45,9.61H23.35c-.6,0-1-.5-1-1s.5-1,1-1h58.1c.6,0,1,.5,1,1s-.4,1-1,1Z"/>
  <path class="cls-2" d="M248.75,9.61h-57.9c-.6,0-1-.5-1-1s.5-1,1-1h57.9c.6,0,1,.5,1,1s-.4,1-1,1Z"/>
  <path class="cls-1" d="M60.95,81.11c-2.7.4-4.3.8-6.1,2.2-3.2,2.6-1.2,8.9,6.3,4.3,1-.6,1.6-1.1,2.4-1.8.9-.8,1.2-1.4,2.1-2.2,1.9.6,3.5,1.5,6.4,2.4,1.1.3,2.3.6,3.5.9.8.2,3.1.5,3.7.8-.5.3-8.1,2.3-7.3,7.4.2,1.3,1.3,2.2,2.6,2.4,3.5.5,7.4-3.4,9.1-5.9.8-1.2,1-2.1,1.6-3.4,2.5-.1,4.9,0,7.4-.2,3.4-.2,5.8,0,5.2-2.1-1.1-.5-4.4.2-6,.3-2.2.1-4.5.2-6.8.1-.6-2.6-3.4-8-5.9-9.2-2.4-1.2-6,.6-3.9,5.8.4,1.1,1,1.6,1.5,2.4-4-.4-8.3-2.8-10.5-3.3-.1-3.5-1.8-10-5-10.6-3.6-.6-5.1,5-.3,9.7h0Z"/>
  <path class="cls-1" d="M185.95,86.21c.4-.2.8-.7,1.2-1.1.9-.9.9-.7,1.1-1.4-2,.3-4.3,1.6-6.5,1.7.3-.7.9-1.2,1.4-2.3,2.1-5-1.1-7.2-3.8-5.9-2,.9-5.3,6.2-5.9,9.2-2.3,0-4.5,0-6.8-.1-1.6-.1-4.9-.8-6-.3-.4,1.5.3,1.6,1.7,1.7,4.4.5,7.1.3,10.9.5.9,1.6,1.5,3.9,3.9,6,1.4,1.2,3.7,3.6,6.7,3.3,3.4-.4,4.3-5.3-1-8.4-1.8-1.1-3-1.2-3.5-1.5.5,0,5.7-1.1,6.6-1.4h0Z"/>
  <path class="cls-1" d="M188.25,83.71c-.2.7-.2.6-1.1,1.4-.4.4-.8.9-1.2,1.1,2.9-.9,5-1.9,6.9-2.5,1.4,1.4,1.8,2.4,4.4,3.9,7.9,4.5,9.5-1.7,6.5-4.2-1.5-1.3-3.7-2-6.2-2.2,1-1.3,2.4-2.2,2.9-5,.4-2.5-.4-5-3-4.7-3.5.4-5.2,7.2-5.2,10.6l-4,1.6h0Z"/>
  <path class="cls-1" d="M122.55,87.41c.2,1.3,2.4,3.7,3.1,4.6q.4.5.9,1c2.4,2.3,2.4,5.4,6.9-1.3,1-1.5,2.1-3.1,2.9-5l-1.8-1.8c-.6-.8-.7-.6-1.3-1.3-.2-.2-.3-.4-.5-.6-.8-.7-.6-.4-1.2-1.5-.7.4-1.3,1.7-1.8,2.4-1-1-.9-2-1.5-2.4-.1.5-1,1.2-1.7,2-.2.2-.3.3-.4.3-.3.3-.4.4-.7.6l-2.9,3h0ZM122.55,87.41l2.8-2.8c.2-.3.4-.4.7-.6.1-.1.2-.2.4-.3.7-.8,1.6-1.5,1.7-2-.2-1.2-2.8-5.6-5.8-2.2-2,2.2-1,6.7.2,7.9h0ZM131.45,81.61c.6,1.1.4.7,1.2,1.5.3.2.4.4.5.6.6.7.6.5,1.3,1.3l1.8,1.8c.3-1.2.8-1.8,1-3.3.2-2.2-.9-6.1-3.8-4.1-.5.3-2,1.5-2,2.2h0ZM150.05,84.41h0Z"/>
  <path class="cls-1" d="M103.75,86.81c.1,1,1.7,2.6,2.2,3.3.3.3.2.3.6.7,1.7,1.7,1.7,3.9,4.9-.9.7-1.1,1.5-2.2,2.1-3.6l-1.3-1.3c-.4-.6-.5-.4-.9-.9-.1-.2-.2-.3-.4-.4-.6-.5-.4-.3-.9-1-.5.3-.9,1.2-1.3,1.7-.7-.7-.6-1.5-1.1-1.7-.1.4-.7.9-1.2,1.4l-.2.2c-.2.2-.3.3-.5.4l-2,2.1h0ZM103.75,86.81l2-2c.2-.2.3-.3.5-.4,0,0,.2-.1.2-.2.5-.5,1.2-1,1.2-1.4-.1-.9-2-4-4.1-1.6-1.4,1.6-.7,4.8.2,5.6h0ZM110.05,82.71c.4.8.3.5.9,1,.2.2.2.3.4.4.4.5.4.3.9.9l1.3,1.3c.2-.8.6-1.3.7-2.4.2-1.6-.6-4.4-2.7-2.9-.5.4-1.5,1.2-1.5,1.7h0ZM123.35,84.71h0Z"/>
  <path class="cls-1" d="M146.35,86.81c.1,1,1.7,2.6,2.2,3.3.3.3.2.3.6.7,1.7,1.7,1.7,3.9,4.9-.9.7-1.1,1.5-2.2,2.1-3.6l-1.3-1.3c-.4-.6-.5-.4-.9-.9-.1-.2-.2-.3-.4-.4-.6-.5-.4-.3-.9-1-.5.3-.9,1.2-1.3,1.7-.7-.7-.6-1.5-1.1-1.7-.1.4-.7.9-1.2,1.4-.1.1-.2.2-.2.2-.2.2-.3.3-.5.4l-2,2.1h0ZM146.35,86.81l2-2c.2-.2.3-.3.5-.4,0,0,.2-.1.2-.2.5-.5,1.2-1,1.2-1.4-.1-.9-2-4-4.1-1.6-1.4,1.6-.7,4.8.2,5.6h0c0,.1,0,0,0,0ZM152.75,82.71c.4.8.3.5.9,1,.2.2.2.3.4.4.4.5.4.3.9.9l1.3,1.3c.2-.8.6-1.3.7-2.4.2-1.6-.6-4.4-2.7-2.9-.5.4-1.5,1.2-1.5,1.7h0ZM165.95,84.71h0Z"/>
  <path class="cls-1" d="M82.65,89.21c-2.2,0-4.2.7-5.8,1.7-1,.6-4.3,2.6-2.7,4.4s7.8-2.7,8.5-6.1h0Z"/>
  <path class="cls-1" d="M175.95,89.21c.2,1.5,2.1,3.7,3.1,4.4,5.6,4.4,8.5.6,2.8-2.7-1.7-1-3.5-1.6-5.9-1.7h0Z"/>
  <path class="cls-1" d="M175.65,86.31c2.8-.1,3.4-.7,4.8-2.2,2.8-3.1,1.7-7-1.2-4.7-1.6,1.2-3.2,5-3.6,6.9h0Z"/>
  <path class="cls-1" d="M82.85,86.31c-.2-1.3-1.4-4-2-5-.5-.8-2.7-3.8-4.1-2.1-1,1.2.7,4.2,1.3,4.9,1.4,1.5,2.1,2,4.8,2.2h0Z"/>
  <path class="cls-1" d="M195.05,83.11c1,2.3,6.7,5.3,8,3.8,1.7-1.7-3.2-4.4-8-3.8h0Z"/>
  <path class="cls-1" d="M55.75,90.31c3.2.2,7.2-2.6,7.7-4.2-2.7-.2-5.8.2-7.7,2.1-1.1,1-.6,1.2,0,2.1h0Z"/>
  <path class="cls-1" d="M194.25,81.01c2.3-.3,5.9-5.4,4.1-7.1-2.2-2.2-3.9,4.7-4.1,7.1h0Z"/>
  <path class="cls-1" d="M64.35,84.01c-.2-1.7-.5-3.5-1.1-4.9-2.2-5.1-5.1-1.6-2.3,2.2.6.9,2,2.3,3.4,2.7h0Z"/>
  <g>
    <path class="cls-2" d="M43.69,25.63c-.23.91-.66,1.63-1.31,2.16-.65.53-1.39.95-2.21,1.24-.83.29-1.7.48-2.62.56-.92.08-1.77.11-2.55.07-1-.03-1.99-.13-2.96-.29-.97-.16-1.94-.34-2.92-.53s-1.95-.38-2.94-.56c-.99-.18-1.97-.3-2.94-.36-1.69-.13-3.37-.06-5.05.22-1.69.28-3.29.79-4.81,1.53-.78.39-1.52.86-2.24,1.41-.71.55-1.34,1.17-1.87,1.87-.53.7-.97,1.48-1.31,2.33-.34.86-.53,1.77-.56,2.75.84-.39,1.69-.66,2.55-.83.86-.16,1.74-.13,2.65.1,1.07.26,1.98.78,2.72,1.56.06.07.16.16.29.29.13.13.21.24.24.34.03.13,0,.21-.07.24-.08.03-.18.05-.29.05s-.24,0-.36-.02c-.13-.02-.23-.02-.29-.02-2.3-.1-4.41.39-6.32,1.46.19.26.41.49.66.7.24.21.53.4.85.56.84.45,1.73.66,2.65.61.92-.05,1.82-.23,2.7-.56.16-.06.23,0,.22.17-.02.18-.04.3-.07.36-.23.71-.66,1.3-1.31,1.75-.65.45-1.34.71-2.09.78-1.04.07-2.06-.16-3.06-.68-1-.52-1.8-1.34-2.38-2.48-.81.65-1.55,1.4-2.21,2.26-.66.86-1.21,1.77-1.63,2.75-.42.97-.7,1.98-.85,3.04-.15,1.05-.12,2.08.07,3.09.26,1.49.81,2.57,1.65,3.23.84.66,1.78,1,2.82,1s2.1-.3,3.18-.9c1.09-.6,2-1.42,2.75-2.45.78-1.07,1.46-2.2,2.04-3.4.58-1.2,1.13-2.41,1.63-3.65.5-1.23.99-2.46,1.46-3.69.47-1.23,1-2.45,1.58-3.65.45-.94.97-1.94,1.56-3.01.58-1.07,1.25-2.07,1.99-3.01.75-.94,1.58-1.75,2.5-2.43.92-.68,1.97-1.12,3.13-1.31.45-.06.92-.08,1.41-.05.49.03.94.15,1.36.34.1.07.15.15.15.24s-.05.18-.15.24c-1,.52-1.81,1.21-2.41,2.07-.6.86-1.14,1.76-1.63,2.7-1.13,2.27-2.16,4.59-3.09,6.95-.92,2.37-2.05,4.75-3.38,7.15-.65,1.17-1.32,2.29-2.02,3.38-.7,1.09-1.52,2.1-2.45,3.04-.78.75-1.68,1.42-2.7,2.02-1.02.6-2.09,1.04-3.21,1.31-1.12.27-2.25.36-3.4.27-1.15-.1-2.26-.47-3.33-1.12-1.13-.68-1.97-1.6-2.5-2.75-.53-1.15-.85-2.39-.95-3.72-.1-1.33-.03-2.66.19-4.01.23-1.34.57-2.55,1.02-3.62.94-2.33,2.43-4.24,4.47-5.74-.13-1.56,0-3.09.36-4.62.37-1.52,1.03-3.01,1.97-4.47,1.81-2.79,4.37-4.68,7.68-5.69,2.33-.71,4.67-.98,7.02-.8,2.35.18,4.69.62,7.02,1.34,1.1.32,2.22.66,3.35,1,1.13.34,2.28.58,3.43.71,1.15.13,2.28.11,3.4-.05,1.12-.16,2.21-.58,3.28-1.26.19-.13.33-.14.41-.02.08.11.09.3.02.56Z"/>
    <path class="cls-2" d="M51.08,49.4c.1-.26.23-.43.41-.51.18-.08.33-.1.46-.05.13.05.23.16.32.34.08.18.07.4-.02.66-.91,2.43-2.15,4.37-3.72,5.83-1.57,1.46-3.23,2.19-4.98,2.19-1.23,0-2.19-.3-2.87-.9-.68-.6-1.05-1.55-1.12-2.84-.75.94-1.64,1.8-2.67,2.58-1.04.78-2.24,1.17-3.6,1.17s-2.54-.49-3.33-1.46c-.79-.97-1.26-2.19-1.39-3.65-.13-1.46.07-3.04.58-4.74s1.36-3.28,2.53-4.74c1.17-1.46,2.67-2.67,4.5-3.65,1.83-.97,4.01-1.46,6.54-1.46,1.75,0,3.12.24,4.11.71.99.47,1.79,1.19,2.41,2.16-.65,1.94-1.25,3.69-1.8,5.25-.23.68-.45,1.35-.68,2.02-.23.66-.44,1.27-.63,1.82-.19.55-.36,1.03-.51,1.43-.15.41-.24.67-.27.8-.42,1.17-.58,2-.46,2.5.11.5.38.75.8.75.26,0,.61-.1,1.04-.32.44-.21.9-.56,1.39-1.04s.99-1.13,1.51-1.92c.52-.79,1-1.77,1.46-2.94ZM43.64,40.36c-.07-.16-.21-.34-.44-.53-.23-.19-.57-.29-1.02-.29-.94,0-1.84.4-2.7,1.19-.86.79-1.65,1.79-2.36,2.99-.71,1.2-1.32,2.5-1.82,3.91-.5,1.41-.85,2.71-1.04,3.91-.19,1.2-.23,2.2-.1,2.99.13.79.49,1.19,1.07,1.19.39,0,.77-.11,1.14-.34.37-.23.73-.53,1.07-.92.34-.39.67-.83,1-1.34.32-.5.61-1.01.87-1.53.62-1.2,1.22-2.58,1.8-4.13l2.53-7.1Z"/>
    <path class="cls-2" d="M67.02,55.77c.49,0,1.02-.16,1.6-.49.58-.32,1.16-.77,1.73-1.34s1.11-1.24,1.63-2.02c.52-.78.97-1.6,1.36-2.48.1-.26.23-.43.41-.51.18-.08.33-.1.46-.05.13.05.23.16.29.34.06.18.05.4-.05.66-.32.88-.78,1.79-1.36,2.75-.58.96-1.27,1.82-2.07,2.59-.79.77-1.67,1.41-2.62,1.92-.96.51-1.97.76-3.04.76-.88,0-1.65-.2-2.31-.61-.66-.4-1.16-1.02-1.48-1.85-.32-.83-.44-1.84-.34-3.04.1-1.2.49-2.61,1.17-4.23,1.13-2.72,1.83-4.66,2.09-5.81.26-1.15.03-1.81-.68-1.97-.49-.1-1.1.13-1.85.68-.75.55-1.57,1.52-2.48,2.89-.91,1.38-1.9,3.21-2.96,5.49-1.07,2.28-2.16,5.1-3.26,8.43l-.05-.05h-.15c-1.43,0-2.42-.53-2.99-1.58-.57-1.05-.54-2.45.07-4.2l4.81-13.9h.53c.55,0,1.05.13,1.51.39.45.26.83.59,1.12,1,.29.41.49.87.58,1.39.1.52.05,1.04-.15,1.56l-.19.49c.97-1.46,2-2.62,3.09-3.48,1.08-.86,2.24-1.29,3.48-1.29,2.53,0,4.03.88,4.5,2.63.47,1.75.02,4.34-1.34,7.75-1,2.54-1.57,4.36-1.7,5.48-.13,1.12.08,1.68.63,1.68Z"/>
    <path class="cls-2" d="M84.03,49.4c.1-.26.23-.43.39-.51.16-.08.32-.1.46-.05.15.05.25.16.32.34.06.18.05.4-.05.66-.91,2.43-2.14,4.37-3.69,5.83-1.56,1.46-3.22,2.19-5.01,2.19-.88,0-1.62-.16-2.24-.49-.62-.32-1.07-.83-1.36-1.51-.29-.68-.4-1.55-.34-2.6.07-1.05.34-2.29.83-3.72l2.82-8.21c.36-.94.93-1.7,1.73-2.28.79-.58,1.69-.88,2.7-.88h2.58c-.78,2.2-1.49,4.26-2.14,6.17-.29.81-.58,1.63-.85,2.45-.28.83-.54,1.6-.8,2.33-.26.73-.49,1.38-.68,1.94-.19.57-.34,1-.44,1.29-.42,1.17-.58,2-.46,2.5.11.5.4.75.85.75.26,0,.6-.1,1.02-.32.42-.21.88-.56,1.39-1.04.5-.49,1.01-1.13,1.53-1.92.52-.79,1-1.77,1.46-2.94ZM84.32,35.5c-.65.68-1.38,1.05-2.19,1.12-.81.07-1.49-.18-2.04-.73-.55-.58-.81-1.31-.78-2.19.03-.87.36-1.65.97-2.33.65-.68,1.38-1.05,2.19-1.12.81-.06,1.49.18,2.04.73.55.58.81,1.31.78,2.19-.03.88-.36,1.65-.97,2.33Z"/>
    <path class="cls-2" d="M106.29,49.4c.1-.26.23-.43.41-.51.18-.08.33-.1.46-.05.13.05.23.16.32.34.08.18.07.4-.02.66-.91,2.43-2.15,4.37-3.72,5.83-1.57,1.46-3.23,2.19-4.98,2.19-1.23,0-2.19-.3-2.87-.9-.68-.6-1.05-1.55-1.12-2.84-.75.94-1.64,1.8-2.67,2.58-1.04.78-2.24,1.17-3.6,1.17s-2.54-.49-3.33-1.46c-.79-.97-1.26-2.19-1.39-3.65-.13-1.46.07-3.04.58-4.74s1.36-3.28,2.53-4.74c1.17-1.46,2.67-2.67,4.5-3.65,1.83-.97,4.01-1.46,6.54-1.46,1.75,0,3.12.24,4.11.71.99.47,1.79,1.19,2.41,2.16-.65,1.94-1.25,3.69-1.8,5.25-.23.68-.45,1.35-.68,2.02-.23.66-.44,1.27-.63,1.82-.19.55-.36,1.03-.51,1.43-.15.41-.24.67-.27.8-.42,1.17-.58,2-.46,2.5.11.5.38.75.8.75.26,0,.61-.1,1.04-.32.44-.21.9-.56,1.39-1.04s.99-1.13,1.51-1.92c.52-.79,1-1.77,1.46-2.94ZM98.86,40.36c-.07-.16-.21-.34-.44-.53-.23-.19-.57-.29-1.02-.29-.94,0-1.84.4-2.7,1.19-.86.79-1.65,1.79-2.36,2.99-.71,1.2-1.32,2.5-1.82,3.91-.5,1.41-.85,2.71-1.04,3.91-.19,1.2-.23,2.2-.1,2.99.13.79.49,1.19,1.07,1.19.39,0,.77-.11,1.14-.34.37-.23.73-.53,1.07-.92.34-.39.67-.83,1-1.34.32-.5.61-1.01.87-1.53.62-1.2,1.22-2.58,1.8-4.13l2.53-7.1Z"/>
  </g>
  <g>
    <path class="cls-2" d="M150.75,40.26c.65,1.23,1.45,2.31,2.41,3.23.96.92,2.02,1.69,3.18,2.31,1.17.62,2.4,1.09,3.69,1.43s2.62.54,3.99.61c.32-.74.63-1.49.92-2.24.29-.74.6-1.49.92-2.24.78-1.91,1.6-3.81,2.48-5.69.88-1.88,1.88-3.69,3.01-5.44.62-.91,1.38-1.87,2.28-2.89.91-1.02,1.92-1.94,3.04-2.77s2.31-1.49,3.57-1.99c1.26-.5,2.53-.69,3.79-.56.81.07,1.56.33,2.24.8s1.2,1.08,1.56,1.82c.42.87.64,1.79.66,2.75.02.96-.1,1.9-.34,2.82-.24.92-.58,1.83-1.02,2.72-.44.89-.92,1.69-1.43,2.41-1.13,1.59-2.42,3.07-3.84,4.45-1.43,1.38-2.93,2.62-4.52,3.72-1.36.94-2.78,1.75-4.25,2.43-1.47.68-3.01,1.23-4.59,1.65-.39.65-.79,1.28-1.21,1.9-.42.62-.88,1.22-1.36,1.8,1.1.39,2.34.91,3.72,1.56,1.38.65,2.75,1.25,4.13,1.8,1.38.55,2.7.95,3.96,1.19,1.26.24,2.33.12,3.21-.36.13-.06.29-.17.49-.32s.32-.19.39-.12c.13.16.15.46.05.9-.1.44-.23.79-.39,1.04-.65,1.04-1.47,1.75-2.46,2.14s-2.04.57-3.16.56c-1.12-.02-2.24-.17-3.35-.46-1.12-.29-2.15-.6-3.09-.92-1.33-.45-2.62-.96-3.89-1.51-1.26-.55-2.54-1.1-3.84-1.65-1.23.94-2.55,1.62-3.96,2.04-1.41.42-2.84.58-4.3.49-.78-.03-1.5-.21-2.16-.53-.66-.32-1.17-.75-1.53-1.26-.36-.52-.51-1.11-.46-1.77.05-.66.36-1.37.95-2.11.75-.88,1.59-1.51,2.53-1.92.94-.4,1.94-.66,2.99-.75s2.13-.06,3.23.1c1.1.16,2.17.39,3.21.68l.78-1.75c-1.46.03-2.91-.1-4.35-.41-1.44-.31-2.81-.82-4.11-1.53-.84-.45-1.64-1-2.38-1.63s-1.33-1.39-1.75-2.26c-.23-.45-.38-.94-.46-1.46-.08-.52-.07-1.02.02-1.51,0-.03.03-.15.1-.34.06-.19.14-.38.22-.56.08-.18.17-.32.27-.41.1-.1.18-.08.24.05ZM156.05,58.2c.65-.16,1.26-.42,1.85-.78.58-.36,1.1-.76,1.56-1.22l-2.19-.88c-.62-.23-1.27-.36-1.97-.41-.7-.05-1.34,0-1.92.15-.58.15-1.05.38-1.41.7-.36.32-.52.73-.49,1.22.03.36.19.63.46.83s.63.34,1.07.44.92.14,1.43.12c.52-.02,1.05-.07,1.6-.17ZM171.84,42.79c-.32.78-.66,1.56-1,2.33-.34.78-.7,1.54-1.09,2.28,1.39-.32,2.74-.83,4.03-1.51,1.26-.65,2.48-1.49,3.64-2.53,1.17-1.04,2.2-2.2,3.11-3.5.91-1.3,1.67-2.67,2.28-4.13.62-1.46,1.02-2.93,1.21-4.42.1-.58.11-1.22.02-1.92-.08-.7-.27-1.3-.56-1.82-.29-.52-.71-.88-1.24-1.09-.54-.21-1.21-.12-2.02.27-.65.32-1.21.75-1.7,1.29-.49.53-.91,1.11-1.26,1.73-.36.62-.68,1.26-.97,1.94-.29.68-.57,1.33-.83,1.94-.65,1.56-1.26,3.09-1.82,4.59-.57,1.51-1.17,3.02-1.82,4.54Z"/>
    <path class="cls-2" d="M204.94,49.4c.1-.26.23-.43.39-.51.16-.08.32-.1.46-.05.15.05.25.16.32.34.06.18.05.4-.05.66-.91,2.43-2.14,4.37-3.69,5.83s-3.22,2.19-5.01,2.19c-1.2,0-2.15-.3-2.84-.9-.7-.6-1.08-1.51-1.14-2.75-.68,1.23-1.42,2.15-2.21,2.75-.79.6-1.73.9-2.79.9-2.14,0-3.55-.96-4.23-2.87-.68-1.91-.49-4.62.58-8.12.32-1.07.72-2.13,1.19-3.18.47-1.05,1.02-1.98,1.65-2.79.63-.81,1.35-1.47,2.16-1.97.81-.5,1.7-.75,2.67-.75h1.46c-1,2.01-1.92,4.08-2.75,6.22s-1.48,4.1-1.97,5.88c-.49,1.78-.75,3.25-.8,4.4-.05,1.15.22,1.73.8,1.73.45,0,.91-.2,1.36-.61.45-.4.9-.93,1.34-1.58.44-.65.86-1.35,1.26-2.11.41-.76.75-1.51,1.05-2.26,0-.06.03-.16.1-.29l2.82-8.21c.36-.94.93-1.7,1.73-2.28.79-.58,1.69-.88,2.7-.88h2.58c-.78,2.2-1.49,4.26-2.14,6.17-.29.81-.58,1.63-.85,2.45-.28.83-.54,1.6-.8,2.33-.26.73-.49,1.38-.68,1.94-.19.57-.34,1-.44,1.29-.42,1.17-.58,2-.46,2.5s.4.75.85.75c.26,0,.6-.1,1.02-.32.42-.21.88-.56,1.39-1.04.5-.49,1.01-1.13,1.53-1.92.52-.79,1-1.77,1.46-2.94Z"/>
    <path class="cls-2" d="M218.65,40.56c-.39-.91-1.05-1.36-1.99-1.36-.81,0-1.58.42-2.31,1.26-.73.84-1.38,1.9-1.94,3.16-.57,1.26-1.02,2.63-1.36,4.11-.34,1.47-.51,2.84-.51,4.11s.18,2.32.53,3.16c.36.84.97,1.26,1.85,1.26,1.49,0,2.89-.56,4.2-1.68,1.31-1.12,2.54-2.84,3.67-5.18.13-.23.27-.38.44-.46s.32-.1.46-.05c.15.05.25.15.32.32.06.16.05.37-.05.63-.58,1.43-1.26,2.66-2.02,3.69-.76,1.04-1.58,1.9-2.46,2.58-.88.68-1.78,1.18-2.72,1.51-.94.32-1.86.49-2.77.49-2.14,0-3.78-.5-4.91-1.51-1.13-1-1.85-2.27-2.14-3.79-.29-1.52-.19-3.17.32-4.93.5-1.77,1.3-3.41,2.41-4.93,1.1-1.52,2.48-2.79,4.13-3.79,1.65-1,3.5-1.51,5.54-1.51.84,0,1.55.15,2.11.44.57.29.98.68,1.24,1.17.23.39.28.75.17,1.09-.11.34-.31.6-.58.78-.28.18-.58.24-.9.17-.32-.06-.57-.31-.73-.73Z"/>
    <path class="cls-2" d="M243.05,49.4c.1-.26.23-.43.41-.51.18-.08.33-.1.46-.05.13.05.23.16.32.34.08.18.07.4-.02.66-.91,2.43-2.15,4.37-3.72,5.83-1.57,1.46-3.23,2.19-4.98,2.19-1.23,0-2.19-.3-2.87-.9-.68-.6-1.05-1.55-1.12-2.84-.75.94-1.64,1.8-2.67,2.58-1.04.78-2.24,1.17-3.6,1.17s-2.54-.49-3.33-1.46c-.79-.97-1.26-2.19-1.39-3.65-.13-1.46.07-3.04.58-4.74.52-1.7,1.36-3.28,2.53-4.74,1.17-1.46,2.67-2.67,4.5-3.65,1.83-.97,4.01-1.46,6.54-1.46,1.75,0,3.12.24,4.11.71.99.47,1.79,1.19,2.41,2.16-.65,1.94-1.25,3.69-1.8,5.25-.23.68-.45,1.35-.68,2.02-.23.66-.44,1.27-.63,1.82-.19.55-.36,1.03-.51,1.43-.15.41-.24.67-.27.8-.42,1.17-.58,2-.46,2.5.11.5.38.75.8.75.26,0,.61-.1,1.04-.32.44-.21.9-.56,1.39-1.04.49-.49.99-1.13,1.51-1.92.52-.79,1-1.77,1.46-2.94ZM235.61,40.36c-.07-.16-.21-.34-.44-.53-.23-.19-.57-.29-1.02-.29-.94,0-1.84.4-2.7,1.19-.86.79-1.64,1.79-2.36,2.99-.71,1.2-1.32,2.5-1.82,3.91-.5,1.41-.85,2.71-1.04,3.91-.19,1.2-.23,2.2-.1,2.99.13.79.49,1.19,1.07,1.19.39,0,.77-.11,1.14-.34.37-.23.73-.53,1.07-.92.34-.39.67-.83,1-1.34.32-.5.62-1.01.88-1.53.62-1.2,1.21-2.58,1.8-4.13l2.53-7.1Z"/>
    <path class="cls-2" d="M256.46,39.73c.23.39.28.75.17,1.09-.11.34-.31.6-.58.78-.28.18-.58.24-.9.17s-.58-.31-.78-.73c-.39-.94-1.05-1.41-1.99-1.41-.52,0-1.03.22-1.53.66-.5.44-.75,1.02-.75,1.73s.23,1.43.68,2.05c.45.62.93,1.27,1.43,1.97.5.7.94,1.51,1.31,2.44.37.93.48,2.05.32,3.39-.16,1.23-.53,2.23-1.09,2.97-.57.75-1.22,1.35-1.97,1.8,1.1-.23,2.1-.59,2.99-1.09.89-.5,1.68-1.08,2.38-1.75.7-.66,1.29-1.38,1.8-2.14.5-.76.92-1.51,1.24-2.26.1-.26.24-.43.41-.51.18-.08.33-.1.46-.05.13.05.23.16.29.34.06.18.05.4-.05.66-.32.88-.83,1.81-1.51,2.82-.68,1-1.52,1.94-2.53,2.79-1,.86-2.17,1.57-3.5,2.14-1.33.57-2.8.85-4.42.85-.91,0-1.71-.05-2.41-.15-.7-.1-1.3-.23-1.82-.39h-.49c-1.07,0-1.92-.15-2.55-.46-.63-.31-1.08-.68-1.34-1.12-.26-.44-.37-.88-.32-1.34.05-.45.19-.83.44-1.14.24-.31.55-.48.92-.51.37-.03.77.16,1.19.58.32.32.67.7,1.02,1.12.36.42.89.81,1.6,1.17.75-.23,1.46-.67,2.14-1.34s1.2-1.53,1.56-2.6c.19-.62.22-1.19.07-1.73-.15-.53-.37-1.07-.68-1.6s-.66-1.07-1.04-1.6c-.39-.53-.71-1.09-.97-1.68-.26.75-.51,1.48-.75,2.21-.24.73-.49,1.39-.75,1.97-.16.39-.34.66-.53.8-.2.15-.36.19-.49.12-.13-.06-.21-.22-.24-.46-.03-.24.02-.54.15-.9.97-2.72,1.75-5.06,2.33-7,.36-1.33,1.24-2.37,2.65-3.11,1.41-.75,3.09-1.12,5.03-1.12.88,0,1.59.14,2.14.42.55.28.97.66,1.26,1.13Z"/>
  </g>
  <g>
    <path class="cls-2" d="M89.5,6.94c0-1.93.48-3.52,1.43-4.77.95-1.25,2.18-1.88,3.68-1.88s2.72.63,3.68,1.89c.95,1.25,1.43,2.83,1.43,4.75s-.48,3.5-1.43,4.77c-.95,1.25-2.18,1.88-3.68,1.88s-2.72-.62-3.68-1.88c-.95-1.27-1.43-2.87-1.43-4.77ZM97.97,6.94c0-1.46-.31-2.66-.93-3.6-.61-.94-1.42-1.41-2.43-1.41s-1.83.47-2.43,1.41c-.62.94-.93,2.14-.93,3.6s.31,2.67.93,3.62c.61.93,1.42,1.39,2.43,1.39s1.83-.47,2.43-1.41c.62-.95.93-2.15.93-3.6Z"/>
    <path class="cls-2" d="M109.95,9.32c0,1.21-.42,2.23-1.26,3.05-.84.82-1.88,1.23-3.12,1.23-.99,0-1.89-.31-2.69-.93-.8-.62-1.34-1.45-1.6-2.51l1.52-.61c.19.74.52,1.33,1.01,1.76.49.43,1.06.65,1.72.65.79,0,1.44-.24,1.94-.73.5-.49.75-1.12.75-1.88s-.25-1.42-.75-1.91c-.5-.49-1.14-.74-1.92-.74-.9,0-1.62.37-2.14,1.1l-1.73-.74.82-6.44h6.67v1.63h-5.24l-.46,3.64.07.02c.63-.51,1.4-.76,2.3-.76,1.14,0,2.11.4,2.91,1.21s1.2,1.8,1.2,2.99Z"/>
    <path class="cls-2" d="M118.45,0l-5.51,13.29h-1.6l5.51-13.29h1.6Z"/>
    <path class="cls-2" d="M124.52.59v12.7h-1.71V2.71l-2.47,1.08-.65-1.45,3.73-1.75h1.1Z"/>
    <path class="cls-2" d="M126.9,6.94c0-1.93.48-3.52,1.43-4.77.95-1.25,2.18-1.88,3.68-1.88s2.72.63,3.68,1.89c.95,1.25,1.43,2.83,1.43,4.75s-.48,3.5-1.43,4.77c-.95,1.25-2.18,1.88-3.68,1.88s-2.72-.62-3.68-1.88c-.95-1.27-1.43-2.87-1.43-4.77ZM135.36,6.94c0-1.46-.31-2.66-.93-3.6-.61-.94-1.42-1.41-2.43-1.41s-1.83.47-2.43,1.41c-.62.94-.93,2.14-.93,3.6s.31,2.67.93,3.62c.61.93,1.42,1.39,2.43,1.39s1.83-.47,2.43-1.41c.62-.95.93-2.15.93-3.6Z"/>
    <path class="cls-2" d="M145.54,0l-5.51,13.29h-1.6l5.51-13.29h1.6Z"/>
    <path class="cls-2" d="M154.88,11.66v1.63h-8.1v-1.71l3.29-3.32c1.1-1.13,1.86-1.97,2.28-2.53.42-.56.63-1.15.63-1.77,0-.56-.22-1.03-.65-1.43-.43-.4-.99-.59-1.67-.59-.58,0-1.08.17-1.5.52s-.69.77-.82,1.26l-1.56-.63c.25-.78.72-1.44,1.43-1.98.71-.54,1.53-.81,2.49-.81,1.15,0,2.11.35,2.88,1.06.77.71,1.15,1.57,1.15,2.6,0,1.23-.67,2.55-2.02,3.97l-3.71,3.73h5.89Z"/>
    <path class="cls-2" d="M156.51,6.94c0-1.93.48-3.52,1.43-4.77.95-1.25,2.18-1.88,3.68-1.88s2.72.63,3.68,1.89c.95,1.25,1.43,2.83,1.43,4.75s-.48,3.5-1.43,4.77c-.95,1.25-2.18,1.88-3.68,1.88s-2.72-.62-3.68-1.88c-.95-1.27-1.43-2.87-1.43-4.77ZM164.98,6.94c0-1.46-.31-2.66-.93-3.6-.61-.94-1.42-1.41-2.43-1.41s-1.83.47-2.43,1.41c-.62.94-.93,2.14-.93,3.6s.31,2.67.93,3.62c.61.93,1.42,1.39,2.43,1.39s1.83-.47,2.43-1.41c.62-.95.93-2.15.93-3.6Z"/>
    <path class="cls-2" d="M176.2,11.66v1.63h-8.1v-1.71l3.29-3.32c1.1-1.13,1.86-1.97,2.28-2.53.42-.56.63-1.15.63-1.77,0-.56-.22-1.03-.65-1.43-.43-.4-.99-.59-1.67-.59-.58,0-1.08.17-1.5.52s-.69.77-.82,1.26l-1.56-.63c.25-.78.72-1.44,1.43-1.98.71-.54,1.53-.81,2.49-.81,1.15,0,2.11.35,2.88,1.06.77.71,1.15,1.57,1.15,2.6,0,1.23-.67,2.55-2.02,3.97l-3.71,3.73h5.89Z"/>
    <path class="cls-2" d="M185.5,10.62v2.67h-1.71v-2.67h-6.03v-1.3l5.89-8.73h1.86v8.43h1.63v1.6h-1.63ZM179.69,9.02h4.1V3.1h-.07l-4.03,5.92Z"/>
  </g>
</svg>