<?xml version="1.0" encoding="UTF-8"?>
<svg id="Capa_1" data-name="Capa 1" xmlns="http://www.w3.org/2000/svg" viewBox="0 0 65.61 83.99">
  <defs>
    <style>
      .cls-1 {
        fill: #000;
      }

      .cls-1, .cls-2 {
        stroke-width: 0px;
      }

      .cls-2 {
        fill: #fff;
      }
    </style>
  </defs>
  <path class="cls-1" d="M5.41,83.99c-.77-.32-1.61-.55-2.31-.99C1.1,81.73,0,79.89,0,77.48,0,55.56,0,33.64,0,11.71c0-3.54,2.92-6.46,6.46-6.46,4.13,0,8.25,0,12.38,0,.52,0,.9-.11,1.27-.52,1.3-1.42,2.93-2.14,4.87-2.11.33,0,.66-.02.98,0,1.3.11,2.41,0,3.34-1.22.53-.7,1.65-.96,2.51-1.41.66,0,1.31,0,1.97,0,1.38.44,2.59,1.1,3.43,2.35.12.18.51.25.78.26,1.33.07,2.68.02,4,.16,1.4.16,2.57.9,3.49,1.96.37.42.75.53,1.27.52,4.13-.02,8.25-.01,12.38,0,3.54,0,6.46,2.92,6.46,6.46,0,21.84,0,43.68,0,65.52,0,3.31-1.92,5.78-5.13,6.61-.1.03-.19.1-.29.15H5.41ZM18.37,7.87c-.24,0-.45,0-.67,0-3.58,0-7.16,0-10.74,0-2.68,0-4.34,1.66-4.34,4.35,0,21.6,0,43.19,0,64.79,0,2.68,1.66,4.34,4.35,4.34,17.22,0,34.45,0,51.67,0,2.68,0,4.34-1.66,4.34-4.35,0-21.6,0-43.19,0-64.79,0-2.69-1.66-4.34-4.34-4.35-3.58,0-7.16,0-10.74,0-.23,0-.46.03-.66.04,0,2.21,0,4.35,0,6.48,0,.87-.5,1.35-1.39,1.35-8.69,0-17.39,0-26.08,0-.9,0-1.38-.48-1.39-1.35-.01-2.13,0-4.26,0-6.52ZM21,13.06h23.61c0-1.37.05-2.68-.01-3.99-.1-1.96-1.35-3.44-3.3-3.7-1.51-.2-3.05-.12-4.58-.11-.72,0-1.21-.24-1.49-.91-.44-1.06-1.26-1.68-2.39-1.7-1.17-.02-2.01.61-2.47,1.7-.28.66-.77.92-1.49.9-1.28-.03-2.57-.03-3.85,0-2.24.05-3.91,1.61-4.02,3.82-.07,1.31-.01,2.62-.01,3.99Z"/>
  <path class="cls-2" d="M18.37,7.87c0,2.25,0,4.38,0,6.52,0,.88.49,1.35,1.39,1.35,8.69,0,17.39,0,26.08,0,.89,0,1.39-.48,1.39-1.35.01-2.13,0-4.26,0-6.48.2-.01.43-.04.66-.04,3.58,0,7.16,0,10.74,0,2.68,0,4.34,1.66,4.34,4.35,0,21.6,0,43.19,0,64.79,0,2.68-1.66,4.34-4.34,4.35-17.22,0-34.45,0-51.67,0-2.68,0-4.35-1.66-4.35-4.34,0-21.6,0-43.19,0-64.79,0-2.69,1.66-4.35,4.34-4.35,3.58,0,7.16,0,10.74,0,.21,0,.43,0,.67,0ZM7.91,13.12c2.14,0,4.23,0,6.33,0,.97,0,1.51-.49,1.5-1.32,0-.83-.54-1.3-1.53-1.3-2.38,0-4.76,0-7.13,0-1.49,0-1.83.34-1.83,1.81,0,21.51,0,43.03,0,64.54,0,1.55.32,1.88,1.85,1.88,17.14,0,34.28,0,51.42,0,1.52,0,1.85-.33,1.85-1.89,0-21.49,0-42.97,0-64.46,0-.25.02-.5,0-.74-.09-.68-.49-1.13-1.18-1.14-2.71-.03-5.41-.02-8.12,0-.72,0-1.19.57-1.19,1.29,0,.81.53,1.31,1.43,1.32,2.12,0,4.25,0,6.4,0v62.93H7.91V13.12ZM41.34,30.18c-3.69,0-7.38,0-11.07,0-.86,0-1.37.49-1.39,1.27-.02.82.51,1.35,1.39,1.35,7.38,0,14.76,0,22.14-.01.33,0,.81-.11.94-.34.24-.4.44-.96.36-1.4-.11-.6-.64-.88-1.3-.88-3.69.01-7.38,0-11.07,0ZM41.34,47.24c3.66,0,7.33,0,10.99,0,.92,0,1.45-.48,1.47-1.28.02-.81-.52-1.34-1.4-1.34-7.38,0-14.76-.01-22.14.02-.38,0-.93.22-1.1.52-.21.36-.3,1.01-.1,1.34.21.36.8.71,1.22.71,3.69.05,7.38.03,11.07.03ZM41.42,59.05c-3.72,0-7.44,0-11.15,0-.86,0-1.37.49-1.39,1.27-.02.82.51,1.35,1.39,1.35,7.38,0,14.76,0,22.14-.01.33,0,.81-.11.94-.34.24-.4.44-.96.36-1.4-.11-.6-.64-.88-1.3-.88-3.66.01-7.33,0-10.99,0ZM17.04,33.57c-.97-.99-1.84-1.89-2.73-2.78-.75-.75-1.56-.82-2.14-.22-.56.59-.48,1.36.23,2.08,1.15,1.16,2.31,2.32,3.48,3.48.88.87,1.49.87,2.38-.01,1.51-1.5,3.02-3.01,4.52-4.52.6-.6,1.21-1.18,1.79-1.8.52-.57.5-1.33.01-1.85-.52-.54-1.3-.55-1.91-.02-.21.18-.39.38-.58.58-1.66,1.66-3.32,3.32-5.05,5.06ZM17.04,48c-.97-.99-1.86-1.91-2.76-2.81-.71-.71-1.51-.78-2.08-.2-.58.58-.52,1.37.19,2.08,1.17,1.18,2.35,2.36,3.54,3.54.83.83,1.47.82,2.32-.02,1.86-1.85,3.71-3.71,5.57-5.56.27-.27.56-.53.8-.82.49-.58.46-1.35-.05-1.84-.51-.49-1.26-.5-1.85,0-.19.16-.35.34-.53.52-1.68,1.68-3.36,3.36-5.14,5.14ZM17.03,62.44c-.96-.98-1.83-1.88-2.72-2.77-.75-.75-1.55-.83-2.14-.23-.57.58-.49,1.36.22,2.08,1.17,1.18,2.35,2.36,3.54,3.54.81.8,1.46.8,2.26,0,1.44-1.42,2.86-2.86,4.29-4.29.71-.72,1.45-1.41,2.13-2.16.49-.53.44-1.29-.02-1.78-.49-.52-1.26-.56-1.84-.08-.21.17-.4.38-.59.57-1.68,1.68-3.36,3.36-5.12,5.12Z"/>
  <path class="cls-2" d="M21,13.06c0-1.37-.06-2.68.01-3.99.11-2.22,1.78-3.78,4.02-3.82,1.28-.03,2.57-.03,3.85,0,.72.02,1.21-.24,1.49-.9.46-1.09,1.3-1.72,2.47-1.7,1.13.02,1.94.64,2.39,1.7.28.66.77.91,1.49.91,1.53,0,3.07-.09,4.58.11,1.95.26,3.2,1.75,3.3,3.7.07,1.31.01,2.62.01,3.99h-23.61ZM34.12,6.54c-.01-.74-.55-1.28-1.29-1.29-.78,0-1.34.55-1.33,1.33.01.74.55,1.28,1.29,1.29.78,0,1.34-.55,1.33-1.34Z"/>
  <path class="cls-1" d="M7.91,13.12v62.93h49.78V13.12c-2.15,0-4.27,0-6.4,0-.9,0-1.43-.51-1.43-1.32,0-.72.48-1.29,1.19-1.29,2.71-.02,5.41-.03,8.12,0,.69,0,1.08.46,1.18,1.14.03.24,0,.49,0,.74,0,21.49,0,42.97,0,64.46,0,1.55-.33,1.89-1.85,1.89-17.14,0-34.28,0-51.42,0-1.53,0-1.85-.33-1.85-1.88,0-21.51,0-43.03,0-64.54,0-1.48.34-1.81,1.83-1.81,2.38,0,4.76,0,7.13,0,.99,0,1.52.46,1.53,1.3,0,.84-.53,1.32-1.5,1.32-2.1,0-4.19,0-6.33,0Z"/>
  <path class="cls-1" d="M41.34,30.18c3.69,0,7.38,0,11.07,0,.66,0,1.2.27,1.3.88.08.44-.12,1-.36,1.4-.14.22-.62.34-.94.34-7.38.02-14.76.02-22.14.01-.89,0-1.41-.53-1.39-1.35.02-.77.54-1.26,1.39-1.27,3.69,0,7.38,0,11.07,0Z"/>
  <path class="cls-1" d="M41.34,47.24c-3.69,0-7.38.02-11.07-.03-.43,0-1.01-.35-1.22-.71-.19-.33-.11-.98.1-1.34.17-.29.72-.51,1.1-.52,7.38-.03,14.76-.02,22.14-.02.89,0,1.42.53,1.4,1.34-.02.8-.55,1.28-1.47,1.28-3.66,0-7.33,0-10.99,0Z"/>
  <path class="cls-1" d="M41.42,59.05c3.66,0,7.33,0,10.99,0,.66,0,1.2.27,1.3.88.08.44-.12,1-.36,1.4-.14.22-.62.34-.94.34-7.38.02-14.76.02-22.14.01-.89,0-1.41-.53-1.39-1.35.02-.77.54-1.26,1.39-1.27,3.72,0,7.44,0,11.15,0Z"/>
  <path class="cls-1" d="M17.04,33.57c1.74-1.74,3.4-3.4,5.05-5.06.19-.19.38-.4.58-.58.61-.53,1.39-.52,1.91.02.49.51.51,1.28-.01,1.85-.57.62-1.19,1.21-1.79,1.8-1.51,1.51-3.01,3.02-4.52,4.52-.88.88-1.5.88-2.38.01-1.16-1.15-2.32-2.31-3.48-3.48-.72-.72-.8-1.5-.23-2.08.58-.61,1.39-.54,2.14.22.89.89,1.76,1.79,2.73,2.78Z"/>
  <path class="cls-1" d="M17.04,48c1.78-1.78,3.46-3.46,5.14-5.14.17-.17.34-.36.53-.52.58-.5,1.34-.49,1.85,0,.51.5.54,1.26.05,1.84-.25.29-.53.55-.8.82-1.85,1.86-3.71,3.71-5.57,5.56-.85.84-1.49.85-2.32.02-1.18-1.17-2.36-2.35-3.54-3.54-.71-.71-.77-1.51-.19-2.08.58-.57,1.37-.51,2.08.2.91.91,1.8,1.83,2.76,2.81Z"/>
  <path class="cls-1" d="M17.03,62.44c1.77-1.77,3.44-3.44,5.12-5.12.19-.19.38-.4.59-.57.59-.48,1.35-.44,1.84.08.47.49.51,1.25.02,1.78-.68.75-1.41,1.44-2.13,2.16-1.43,1.43-2.85,2.87-4.29,4.29-.81.8-1.46.8-2.26,0-1.19-1.17-2.36-2.35-3.54-3.54-.71-.72-.79-1.5-.22-2.08.59-.6,1.39-.53,2.14.23.89.89,1.76,1.79,2.72,2.77Z"/>
  <path class="cls-1" d="M34.12,6.54c.01.78-.55,1.34-1.33,1.34-.75,0-1.28-.54-1.29-1.29-.01-.79.54-1.34,1.33-1.33.75,0,1.28.54,1.29,1.29Z"/>
</svg>